# xmcd CD database file
#
# Track frame offsets:
#	150
#	18447
#	37302
#	53827
#	73212
#	91372
#	108732
#	130130
#	149967
#	168780
#
# Disc length: 2543 seconds
#
# Revision: 0
# Processed by: cddbd v1.5PL3 Copyright (c) Steve Scherf et al.
# Submitted via: CDex 1.51
#
DISCID=9909ed0a
DTITLE=Basia - Simple Pleasures
DYEAR=2003
DGENRE=Jazz
TTITLE0=Time And Tide
TTITLE1=Miles Away
TTITLE2=Run For Cover
TTITLE3=Take Him Back, Rachel
TTITLE4=Best Friends
TTITLE5=Until You Come Back To Me (That's What I'm Gonna Do)
TTITLE6=Drunk On Love
TTITLE7=Give Me That
TTITLE8=Come To Heaven
TTITLE9=Simple Pleasures
EXTD=YEAR: 2003
EXTT0=
EXTT1=
EXTT2=
EXTT3=
EXTT4=
EXTT5=
EXTT6=
EXTT7=
EXTT8=
EXTT9=
PLAYORDER=
